<svg width="101" height="115" viewBox="0 0 101 115" fill="none" xmlns="http://www.w3.org/2000/svg">
<mask id="mask0_6_61" style="mask-type:alpha" maskUnits="userSpaceOnUse" x="0" y="0" width="101" height="115">
<g clip-path="url(#clip0_6_61)">
<path d="M39.6078 26.1687C38.3476 25.9907 38.2876 25.9314 38.8877 25.872C40.0279 25.694 42.6684 25.9314 44.5288 26.3467C48.8497 27.3555 52.7504 29.9665 56.8913 34.5356L57.9715 35.7817L59.5318 35.5444C66.1931 34.4763 73.0345 35.307 78.7356 37.918C80.2959 38.63 82.7564 40.0542 83.0564 40.4102C83.1765 40.5289 83.3565 41.3003 83.4765 42.0717C83.8966 44.8607 83.7166 46.9376 82.8164 48.5397C82.3363 49.4298 82.3363 49.6672 82.6364 50.4386C82.8764 51.032 83.5965 51.4474 84.2567 51.4474C85.697 51.4474 87.1973 49.1925 87.9174 46.0475L88.2175 44.8013L88.7576 45.3947C91.8182 48.7771 94.2187 53.4649 94.5787 56.7879L94.6987 57.678L94.1586 56.9066C93.2585 55.5418 92.4183 54.6517 91.2781 53.8803C89.2377 52.5155 87.0772 52.1001 81.3761 51.8034C76.2151 51.5067 73.2745 51.0913 70.3939 50.1419C65.473 48.5397 62.9525 46.4628 57.1313 38.808C54.5508 35.4257 52.9305 33.5862 51.3101 32.0433C47.7694 28.661 44.2287 26.8808 39.6078 26.1687Z" fill="#FF007A"/>
<path d="M84.3167 33.7049C84.4367 31.4499 84.7368 29.9665 85.3969 28.6017C85.637 28.0676 85.877 27.5929 85.937 27.5929C85.997 27.5929 85.877 28.0083 85.697 28.483C85.2169 29.7884 85.1569 31.628 85.4569 33.7049C85.877 36.3751 86.057 36.7312 88.9376 39.6388C90.2579 41.0036 91.8182 42.7245 92.4183 43.4365L93.4385 44.742L92.4183 43.7926C91.1581 42.6058 88.2775 40.3509 87.6174 40.0542C87.1973 39.8168 87.1373 39.8168 86.8372 40.1135C86.5972 40.3509 86.5371 40.7069 86.5371 42.4278C86.4771 45.098 86.1171 46.7595 85.2169 48.4804C84.7368 49.3705 84.6768 49.1925 85.0969 48.1837C85.3969 47.4123 85.4569 47.0562 85.4569 44.5046C85.4569 39.3421 84.8568 38.096 81.1961 36.0191C80.2959 35.485 78.7356 34.7136 77.8354 34.2982C76.8752 33.8829 76.1551 33.5268 76.2151 33.5268C76.3351 33.4082 79.8758 34.4169 81.2561 35.0103C83.3565 35.8411 83.7166 35.9004 83.9566 35.8411C84.1367 35.6631 84.2567 35.1883 84.3167 33.7049Z" fill="#FF007A"/>
<path d="M42.0683 42.5464C39.5478 39.1047 37.9275 33.7642 38.2876 29.7884L38.4076 28.5423L39.0077 28.661C40.0879 28.839 41.9483 29.5511 42.8485 30.0851C45.2489 31.5093 46.3291 33.4675 47.3493 38.3333C47.6494 39.7575 48.0695 41.419 48.2495 41.953C48.5496 42.8431 49.6898 44.92 50.65 46.2255C51.3101 47.1749 50.8901 47.6496 49.3898 47.531C47.1093 47.2936 44.0487 45.2167 42.0683 42.5464Z" fill="#FF007A"/>
<path d="M81.2561 68.3591C69.3737 63.612 65.1729 59.5175 65.1729 52.5748C65.1729 51.566 65.2329 50.7353 65.2329 50.7353C65.2929 50.7353 65.713 51.0913 66.2531 51.5067C68.6536 53.4056 71.3541 54.2363 78.8556 55.3044C83.2365 55.9572 85.757 56.4319 88.0374 57.2033C95.2989 59.5769 99.7998 64.4427 100.88 71.0294C101.18 72.9283 101 76.548 100.52 78.4468C100.1 79.9303 98.8996 82.66 98.5995 82.7193C98.5395 82.7193 98.4195 82.4226 98.4195 81.9479C98.2995 79.4556 97.0392 77.082 94.9388 75.2425C92.4183 73.1063 89.1777 71.5041 81.2561 68.3591Z" fill="#FF007A"/>
<path d="M72.8544 70.3173C72.7344 69.4273 72.4344 68.2998 72.2543 67.8251L71.9543 66.935L72.4944 67.5877C73.2745 68.4778 73.8746 69.5459 74.4148 71.0294C74.8348 72.1569 74.8348 72.5129 74.8348 74.3524C74.8348 76.1326 74.7748 76.548 74.4148 77.5568C73.8146 79.1589 73.0945 80.2864 71.8943 81.5325C69.7338 83.7281 66.9133 84.9149 62.8925 85.4489C62.1723 85.5083 60.1319 85.6863 58.3316 85.805C53.8307 86.0423 50.8301 86.517 48.1295 87.4665C47.7695 87.5851 47.4094 87.7038 47.3494 87.6445C47.2294 87.5258 49.0897 86.4577 50.59 85.7456C52.6905 84.7369 54.8509 84.2028 59.5918 83.372C61.9323 83.016 64.3328 82.5413 64.9329 82.3039C70.8741 80.4644 73.8146 75.8953 72.8544 70.3173Z" fill="#FF007A"/>
<path d="M78.3155 79.871C76.7552 76.4887 76.3951 73.2843 77.2353 70.258C77.3553 69.9613 77.4753 69.6646 77.5954 69.6646C77.7154 69.6646 78.0754 69.8426 78.4355 70.08C79.1557 70.5547 80.656 71.3855 84.4967 73.4623C89.3577 76.0733 92.1182 78.0908 94.0386 80.4051C95.7189 82.4226 96.7391 84.7369 97.2192 87.5851C97.5193 89.1873 97.3393 93.0444 96.9192 94.6466C95.5989 99.6904 92.5983 103.725 88.2175 106.04C87.5573 106.396 87.0172 106.633 86.9572 106.633C86.8972 106.633 87.1372 106.04 87.4973 105.328C88.9376 102.301 89.1176 99.3937 88.0374 96.13C87.3773 94.1125 85.997 91.6796 83.2365 87.5851C79.9358 82.838 79.1557 81.5919 78.3155 79.871Z" fill="#FF007A"/>
<path d="M33.6067 98.0289C38.0476 94.3498 43.5086 91.7389 48.5496 90.9081C50.7101 90.5521 54.3108 90.6708 56.2912 91.2048C59.4718 92.0356 62.3524 93.8158 63.8527 96.0113C65.293 98.1476 65.9531 99.9871 66.6132 104.082C66.8533 105.684 67.1533 107.345 67.2133 107.701C67.6934 109.837 68.6536 111.499 69.8539 112.389C71.7142 113.754 74.9549 113.813 78.1355 112.626C78.6756 112.448 79.1557 112.27 79.1557 112.33C79.2757 112.448 77.6554 113.516 76.5752 114.051C75.0749 114.822 73.8747 115.059 72.2543 115.059C69.3738 115.059 66.9133 113.576 64.9329 110.609C64.5128 110.015 63.6726 108.295 62.9525 106.692C60.8521 101.886 59.7719 100.462 57.3114 98.8596C55.151 97.4948 52.3904 97.1981 50.29 98.2069C47.5294 99.5124 46.8093 103.013 48.7297 105.15C49.5098 106.04 50.9501 106.752 52.1504 106.93C54.3708 107.227 56.2912 105.506 56.2912 103.31C56.2912 101.886 55.7511 101.055 54.3108 100.402C52.3904 99.5717 50.29 100.521 50.35 102.361C50.35 103.132 50.7101 103.607 51.4902 103.963C51.9703 104.2 51.9703 104.2 51.6103 104.141C49.8699 103.785 49.4498 101.649 50.8301 100.284C52.5104 98.6223 56.0511 99.3344 57.2514 101.649C57.7315 102.598 57.7915 104.497 57.3714 105.684C56.3512 108.295 53.4706 109.659 50.53 108.888C48.5496 108.354 47.7095 107.82 45.309 105.387C41.1082 101.115 39.4878 100.284 33.4867 99.3937L32.3464 99.2157L33.6067 98.0289Z" fill="#FF007A"/>
<path fill-rule="evenodd" clip-rule="evenodd" d="M2.04033 2.5516C16.0231 19.3447 37.5674 45.4541 38.6476 46.8782C39.5478 48.065 39.1877 49.1925 37.6874 50.0232C36.8472 50.4979 35.1069 50.9727 34.2667 50.9727C33.3065 50.9727 32.1663 50.4979 31.3861 49.7265C30.846 49.1925 28.5056 45.8101 23.2245 37.6806C19.2037 31.4499 15.783 26.2874 15.723 26.2281C15.483 26.1094 15.483 26.1094 22.8044 39.0454C27.4254 47.1749 28.9257 50.0826 28.9257 50.4386C28.9257 51.21 28.6856 51.6254 27.7254 52.6935C26.1051 54.4737 25.385 56.4912 24.8448 60.7043C24.2447 65.3922 22.6244 68.7152 18.0035 74.3524C15.303 77.6754 14.8829 78.2688 14.2227 79.6336C13.3826 81.2951 13.1425 82.2446 13.0225 84.3808C12.9025 86.6357 13.1425 88.0599 13.8027 90.1961C14.4028 92.0949 15.0629 93.3411 16.6832 95.774C18.0635 97.9102 18.9037 99.5124 18.9037 100.106C18.9037 100.58 19.0237 100.58 21.1841 100.106C26.3451 98.919 30.606 96.9014 32.9464 94.4092C34.3867 92.8664 34.7468 92.0356 34.7468 89.8994C34.7468 88.5346 34.6868 88.2379 34.3267 87.4071C33.7266 86.1016 32.5864 85.0335 30.1259 83.372C26.8852 81.1765 25.505 79.3963 25.1449 77.0227C24.8448 75.0052 25.2049 73.6404 27.0053 69.902C28.8656 66.0449 29.3457 64.4427 29.6458 60.5263C29.8258 58.0341 30.1259 57.0253 30.846 56.2539C31.6262 55.4231 32.2863 55.1264 34.1467 54.8891C37.2073 54.4737 39.1877 53.7023 40.748 52.2188C42.1283 50.9727 42.7284 49.7265 42.7884 47.887L42.8484 46.5222L42.0683 45.6914C39.2477 42.4871 0.179958 0 -7.72248e-05 0C-0.0600891 0 0.900101 1.12745 2.04033 2.5516ZM20.464 86.9324C21.1241 85.805 20.764 84.3808 19.6838 83.6687C18.6636 83.016 17.1033 83.3127 17.1033 84.2028C17.1033 84.4401 17.2233 84.6775 17.5834 84.7962C18.1235 85.0929 18.1835 85.3896 17.7634 86.0423C17.3434 86.695 17.3434 87.2884 17.8835 87.7038C18.7236 88.3566 19.8639 88.0005 20.464 86.9324Z" fill="#FF007A"/>
<path fill-rule="evenodd" clip-rule="evenodd" d="M44.7689 55.7198C43.3286 56.1352 41.9483 57.678 41.5282 59.2209C41.2882 60.1703 41.4082 61.8911 41.8283 62.4252C42.4884 63.2559 43.0885 63.4933 44.7689 63.4933C48.0695 63.4933 50.8901 62.0691 51.1901 60.3483C51.4902 58.9242 50.23 56.9659 48.4896 56.0759C47.5894 55.6011 45.7291 55.4231 44.7689 55.7198ZM48.6096 58.6868C49.0897 57.9747 48.9097 57.2033 48.0095 56.6693C46.3892 55.6605 43.9287 56.4912 43.9287 58.0341C43.9287 58.8055 45.189 59.6362 46.3892 59.6362C47.1693 59.6362 48.2496 59.1615 48.6096 58.6868Z" fill="#FF007A"/>
</g>
</mask>
<g mask="url(#mask0_6_61)">
<rect x="7" width="103" height="115" fill="white"/>
</g>
<defs>
<clipPath id="clip0_6_61">
<rect width="101" height="115" fill="white"/>
</clipPath>
</defs>
</svg>
